<?xml version="1.0" encoding="utf-8"?><svg xml:space="preserve" viewBox="0 0 100 100" y="0" x="0" xmlns="http://www.w3.org/2000/svg" id="圖層_1" version="1.1" width="47px" height="47px" xmlns:xlink="http://www.w3.org/1999/xlink" style="width:100%;height:100%;background-size:initial;background-repeat-y:initial;background-repeat-x:initial;background-position-y:initial;background-position-x:initial;background-origin:initial;background-color:initial;background-clip:initial;background-attachment:initial;animation-play-state:paused" ><g class="ldl-scale" style="transform-origin:50% 50%;transform:rotate(0deg) scale(0.8, 0.8);animation-play-state:paused" ><g style="animation-play-state:paused" ><path stroke-miterlimit="10" stroke-width="3.5" stroke="#333" fill="#f3e5c7" d="M47.4 52l-7-2.5 11.9-34L65.9 11c.7-.2 1.4.1 1.7.8l1.5 4.5c.2.7-.1 1.4-.8 1.7l-10.1 3.4L47.4 52z" style="stroke:rgb(51, 51, 51);fill:rgb(243, 229, 199);animation-play-state:paused" ></path></g>
<path stroke-miterlimit="10" stroke-width="3.5" stroke="#333" fill="#e15c64" d="M62 89H38c-1.3 0-2.4-1-2.5-2.3l-4.2-51.6h37.5l-4.2 51.6C64.5 88 63.4 89 62 89z" style="stroke:rgb(51, 51, 51);fill:rgb(225, 92, 100);animation-play-state:paused" ></path>
<path stroke-miterlimit="10" stroke-width="3.5" stroke="#333" fill="#e0e0e0" d="M71.3 38.6H28.7c-1.5 0-2.7-1.2-2.7-2.7v-2.7c0-1.5 1.2-2.7 2.7-2.7h42.6c1.5 0 2.7 1.2 2.7 2.7v2.7c0 1.5-1.2 2.7-2.7 2.7z" style="stroke:rgb(51, 51, 51);fill:rgb(224, 224, 224);animation-play-state:paused" ></path>
<path stroke-miterlimit="10" stroke-width="3.5" stroke="#000" opacity=".2" d="M60.8 18.1l-3.9 1.6-3.8 10.8H55l3.2-9 10.1-3.4c.7-.2 1.1-1 .8-1.7l-.3-1c0 .1-7.4 2.5-8 2.7z" style="stroke:rgb(0, 0, 0);animation-play-state:paused" ></path>
<path d="M38.5 57.6v.6" stroke-miterlimit="10" stroke-width="3.5" stroke="#fff" fill="none" stroke-linecap="round" style="stroke:rgb(255, 255, 255);animation-play-state:paused" ></path>
<path d="M37.3 43.8l.6 7.2" stroke-miterlimit="10" stroke-width="3.5" stroke="#fff" fill="none" stroke-linecap="round" style="stroke:rgb(255, 255, 255);animation-play-state:paused" ></path>
<circle stroke-miterlimit="10" stroke-width="3.5" stroke="#333" fill="#f5e6c8" r="8.5" cy="60.2" cx="55.8" style="stroke:rgb(51, 51, 51);fill:rgb(245, 230, 200);animation-play-state:paused" ></circle>
<path stroke-miterlimit="10" stroke-width="3.5" stroke="#000" opacity=".2" d="M71.3 30.5H59.1c1.2 0 2.2 1.2 2.2 2.7v2.7c0 1.5-1 2.7-2.2 2.7h-2.4l-3.3 48.1c-.1 1.3-1 2.3-2.1 2.3H62c1.3 0 2.4-1 2.5-2.3l3.9-48.1h2.8c1.5 0 2.7-1.2 2.7-2.7v-2.7c.1-1.5-1.1-2.7-2.6-2.7z" style="stroke:rgb(0, 0, 0);animation-play-state:paused" ></path>
<metadata xmlns:d="https://loading.io/stock/" style="animation-play-state:paused" ><d:name style="animation-play-state:paused" >cup</d:name>
<d:tags style="animation-play-state:paused" >cup,drink,cold pop,coke,bottle</d:tags>
<d:license style="animation-play-state:paused" >by</d:license>
<d:slug style="animation-play-state:paused" >u97u3a</d:slug></metadata></g><!-- generated by https://loading.io/ --></svg>