<?xml version="1.0"?>
<svg version="1.1" id="圖層_1" xmlns="http://www.w3.org/2000/svg" x="0" y="0" viewBox="0 0 100 100" xml:space="preserve"><path d="M78.2 87H21.8c-1.2 0-2.2-1-2.2-2.2V15.2c0-1.2 1-2.2 2.2-2.2h56.4c1.2 0 2.2 1 2.2 2.2v69.6c0 1.2-1 2.2-2.2 2.2z" fill="#fff" stroke="#333" stroke-width="3.5" stroke-linecap="round" stroke-miterlimit="10"/><path d="M70 68.7H30c-.8 0-1.4-.6-1.4-1.4V23.4c0-.8.6-1.4 1.4-1.4h40c.8 0 1.4.6 1.4 1.4v43.9c0 .8-.6 1.4-1.4 1.4z" fill="#a0c8d7" stroke="#333" stroke-width="3.5" stroke-linecap="round" stroke-miterlimit="10"/><path d="M60.5 68.5h-21V55.7c0-4 3.2-7.2 7.2-7.2h6.6c4 0 7.2 3.2 7.2 7.2v12.8z" fill="#666" stroke="#333" stroke-linecap="round" stroke-width="3.5" stroke-miterlimit="10"/><circle cx="50" cy="42.5" r="9" fill="#f5e6c8" stroke="#333" stroke-width="3.5" stroke-linecap="round" stroke-miterlimit="10"/><metadata xmlns:d="https://loading.io/stock/"><d:name>image</d:name><d:tags>image,photo,picture,figure,gif,jpg,png,webp,graphics,selfie</d:tags><d:license>by</d:license><d:slug>nba40</d:slug></metadata></svg>